<?xml version="1.0" encoding="utf-8"?>
<!-- Generator: Adobe Illustrator 23.0.5, SVG Export Plug-In . SVG Version: 6.00 Build 0)  -->
<svg version="1.1" id="Layer_1" xmlns="http://www.w3.org/2000/svg" xmlns:xlink="http://www.w3.org/1999/xlink" x="0px" y="0px"
	 viewBox="0 0 504 288" style="enable-background:new 0 0 504 288;" xml:space="preserve">
<style type="text/css">
	.st0{opacity:0.51;}
	.st1{opacity:0.4;clip-path:url(#SVGID_2_);fill:#0A0909;}
	.st2{clip-path:url(#SVGID_2_);fill:#FFFFFF;}
	.st3{opacity:0.5;clip-path:url(#SVGID_2_);}
	.st4{fill:#0A0909;}
	.st5{opacity:0.6;}
	.st6{clip-path:url(#SVGID_2_);}
	.st7{fill:#1D2A42;}
</style>
<g class="st0">
	<g>
		<defs>
			<rect id="SVGID_1_" x="0" y="0" width="504" height="288"/>
		</defs>
		<use xlink:href="#SVGID_1_"  style="overflow:visible;fill:#FFAA00;"/>
		<clipPath id="SVGID_2_">
			<use xlink:href="#SVGID_1_"  style="overflow:visible;"/>
		</clipPath>
		<polygon class="st1" points="147.9,125.3 574,-42.9 514.5,398.4 217.7,396.7 129.9,169.2 124.2,149.3 		"/>
		<polygon class="st2" points="147.9,125.3 568.9,12.4 514.5,398.4 250.9,383.1 129.9,169.2 124.2,149.3 		"/>
		<g class="st3">
			<g>
				<path class="st4" d="M-21.6,316l2.1-7.3c0.5-1.9,2.5-2.9,4.4-2.4l9.5,2.8c1.9,0.5,3,2.5,2.4,4.4l-0.7,2.6h6.4l39.6-137
					c1.5-5.2,6.9-8.1,12.1-6.7l110.5,31.9c5.2,1.5,8.2,6.9,6.7,12.1L142.5,316h34.2l98.8-341.9h-8.4l-2.1,7.2
					c-0.5,1.9-2.5,2.9-4.4,2.4l-9.5-2.8c-1.9-0.5-3-2.5-2.4-4.4l0.7-2.4h-8.1l-6.2,21.4c-1.5,5.2-6.9,8.2-12.1,6.7L126-25.9H68.1
					L-30.7,316H-21.6z M173.1,299.2l-3.7,12.9c-0.5,1.9-2.5,2.9-4.4,2.4l-9.5-2.8c-1.9-0.5-3-2.5-2.4-4.4l3.7-12.9
					c0.5-1.9,2.5-2.9,4.4-2.4l9.5,2.8C172.6,295.3,173.7,297.3,173.1,299.2z M181.8,269.1l-3.7,12.9c-0.5,1.9-2.5,2.9-4.4,2.4
					l-9.5-2.8c-1.9-0.5-3-2.5-2.4-4.4l3.7-12.9c0.5-1.9,2.5-2.9,4.4-2.4l9.5,2.8C181.3,265.3,182.4,267.2,181.8,269.1z M190.5,239
					l-3.7,12.9c-0.5,1.9-2.5,2.9-4.4,2.4l-9.5-2.8c-1.9-0.5-3-2.5-2.4-4.4l3.7-12.9c0.5-1.9,2.5-2.9,4.4-2.4l9.5,2.8
					C190,235.2,191.1,237.1,190.5,239z M199.2,208.9l-3.7,12.9c-0.5,1.9-2.5,2.9-4.4,2.4l-9.5-2.8c-1.9-0.5-3-2.5-2.4-4.4l3.7-12.9
					c0.5-1.9,2.5-2.9,4.4-2.4l9.5,2.8C198.7,205.1,199.7,207.1,199.2,208.9z M207.9,178.9l-3.7,12.9c-0.5,1.9-2.5,2.9-4.4,2.4
					l-9.5-2.8c-1.9-0.5-3-2.5-2.4-4.4l3.7-12.9c0.5-1.9,2.5-2.9,4.4-2.4l9.5,2.8C207.4,175,208.4,177,207.9,178.9z M216.6,148.8
					l-3.7,12.9c-0.5,1.9-2.5,2.9-4.4,2.4l-9.5-2.8c-1.9-0.5-3-2.5-2.4-4.4l3.7-12.9c0.5-1.9,2.5-2.9,4.4-2.4l9.5,2.8
					C216,145,217.1,146.9,216.6,148.8z M225.3,118.7l-3.7,12.9c-0.5,1.9-2.5,2.9-4.4,2.4l-9.5-2.8c-1.9-0.5-3-2.5-2.4-4.4L209,114
					c0.5-1.9,2.5-2.9,4.4-2.4l9.5,2.8C224.7,114.9,225.8,116.8,225.3,118.7z M234,88.7l-3.7,12.9c-0.5,1.9-2.5,2.9-4.4,2.4l-9.5-2.8
					c-1.9-0.5-3-2.5-2.4-4.4l3.7-12.9c0.5-1.9,2.5-2.9,4.4-2.4l9.5,2.8C233.4,84.8,234.5,86.8,234,88.7z M240,6.6l3.7-12.9
					c0.5-1.9,2.5-2.9,4.4-2.4l9.5,2.8c1.9,0.5,3,2.5,2.4,4.4l-3.7,12.9c-0.5,1.9-2.5,2.9-4.4,2.4l-9.5-2.8
					C240.6,10.5,239.5,8.5,240,6.6z M231.3,36.7l3.7-12.9c0.5-1.9,2.5-2.9,4.4-2.4l9.5,2.8c1.9,0.5,3,2.5,2.4,4.4l-3.7,12.9
					c-0.5,1.9-2.5,2.9-4.4,2.4l-9.5-2.8C231.9,40.5,230.8,38.6,231.3,36.7z M230.7,51.5l9.5,2.8c1.9,0.5,3,2.5,2.4,4.4l-3.7,12.9
					c-0.5,1.9-2.5,2.9-4.4,2.4l-9.5-2.8c-1.9-0.5-3-2.5-2.4-4.4l3.7-12.9C226.9,52,228.9,50.9,230.7,51.5z M109.6-19.6l110.5,31.9
					c5.2,1.5,8.2,6.9,6.7,12.1l-47.1,162.9c-1.5,5.2-6.9,8.2-12.1,6.7L57.1,162.1c-5.2-1.5-8.2-6.9-6.7-12.1L97.5-12.9
					C99-18.1,104.4-21.1,109.6-19.6z M72.4-9.2l3.7-12.9c0.5-1.9,2.5-2.9,4.4-2.4l9.5,2.8c1.9,0.5,3,2.5,2.4,4.4L88.7-4.5
					c-0.5,1.9-2.5,3-4.4,2.4l-9.5-2.8C73-5.4,71.9-7.4,72.4-9.2z M63.7,20.8l3.7-12.9C68,6,70,5,71.8,5.5l9.5,2.8
					c1.9,0.5,3,2.5,2.4,4.4L80,25.6c-0.5,1.9-2.5,3-4.4,2.4l-9.5-2.8C64.3,24.7,63.2,22.7,63.7,20.8z M55.1,50.9L58.8,38
					c0.5-1.9,2.5-2.9,4.4-2.4l9.5,2.8c1.9,0.5,3,2.5,2.4,4.4l-3.7,12.9c-0.5,1.9-2.5,3-4.4,2.4l-9.5-2.8
					C55.6,54.7,54.5,52.8,55.1,50.9z M46.4,81l3.7-12.9c0.5-1.9,2.5-2.9,4.4-2.4l9.5,2.8c1.9,0.5,3,2.5,2.4,4.4l-3.7,12.9
					c-0.5,1.9-2.5,3-4.4,2.4l-9.5-2.8C46.9,84.8,45.8,82.9,46.4,81z M37.7,111.1l3.7-12.9c0.5-1.9,2.5-2.9,4.4-2.4l9.5,2.8
					c1.9,0.5,3,2.5,2.4,4.4L54,115.8c-0.5,1.9-2.5,3-4.4,2.4l-9.5-2.8C38.2,114.9,37.1,112.9,37.7,111.1z M29,141.1l3.7-12.9
					c0.5-1.9,2.5-2.9,4.4-2.4l9.5,2.8c1.9,0.5,3,2.5,2.4,4.4l-3.7,12.9c-0.5,1.9-2.5,3-4.4,2.4l-9.5-2.8C29.5,145,28.4,143,29,141.1
					z M20.3,171.2l3.7-12.9c0.5-1.9,2.5-2.9,4.4-2.4l9.5,2.8c1.9,0.5,3,2.5,2.4,4.4l-3.7,12.9c-0.5,1.9-2.5,3-4.4,2.4l-9.5-2.8
					C20.8,175,19.7,173.1,20.3,171.2z M11.6,201.3l3.7-12.9c0.5-1.9,2.5-2.9,4.4-2.4l9.5,2.8c1.9,0.5,3,2.5,2.4,4.4L27.9,206
					c-0.5,1.9-2.5,3-4.4,2.4l-9.5-2.8C12.1,205.1,11,203.2,11.6,201.3z M2.9,231.4l3.7-12.9c0.5-1.9,2.5-2.9,4.4-2.4l9.5,2.8
					c1.9,0.5,3,2.5,2.4,4.4l-3.7,12.9c-0.5,1.9-2.5,3-4.4,2.4l-9.5-2.8C3.4,235.2,2.3,233.2,2.9,231.4z M-5.8,261.4l3.7-12.9
					c0.5-1.9,2.5-2.9,4.4-2.4l9.5,2.8c1.9,0.5,3,2.5,2.4,4.4l-3.7,12.9c-0.5,1.9-2.5,3-4.4,2.4l-9.5-2.8
					C-5.3,265.3-6.3,263.3-5.8,261.4z M-14.5,291.5l3.7-12.9c0.5-1.9,2.5-2.9,4.4-2.4l9.5,2.8c1.9,0.5,3,2.5,2.4,4.4l-3.7,12.9
					c-0.5,1.9-2.5,3-4.4,2.4l-9.5-2.8C-14,295.3-15,293.4-14.5,291.5z"/>
			</g>
			<g class="st5">
				<path class="st4" d="M142.5,316l28.8-99.7c1.5-5.2-1.5-10.6-6.7-12.1L54.1,172.3c-5.2-1.5-10.6,1.5-12.1,6.7L2.5,316H142.5z"/>
				<path class="st4" d="M109.6-19.6c-5.2-1.5-10.6,1.5-12.1,6.7L50.4,150c-1.5,5.2,1.5,10.6,6.7,12.1L167.6,194
					c5.2,1.5,10.6-1.5,12.1-6.7l47.1-162.9c1.5-5.2-1.5-10.6-6.7-12.1L109.6-19.6z"/>
				<path class="st4" d="M126-25.9L223,2.2c5.2,1.5,10.6-1.5,12.1-6.7l6.2-21.4H126z"/>
			</g>
		</g>
		<g class="st6">
			<g>
				<path class="st7" d="M412,367.2L528-34.2h-21.7l3.4,1c2.1,0.6,3.3,2.8,2.7,4.9l-19.1,66.2c-0.6,2.1-2.8,3.3-4.9,2.7l-44.9-13
					c-2.1-0.6-3.3-2.8-2.7-4.9l16.5-56.9h-2.6l-1,3.4c-0.2,0.8-1,1.2-1.8,1l-3.9-1.1c-0.8-0.2-1.2-1-1-1.8l0.4-1.5h-3.7l-116,401.4
					h3.7l0.5-1.8c0.2-0.8,1-1.2,1.8-1l3.9,1.1c0.7,0.2,1.1,0.9,1,1.6h2.6l6-20.8c0.6-2.1,2.8-3.3,4.9-2.7l44.9,13
					c2.1,0.6,3.3,2.8,2.7,4.9l-1.6,5.6h6.7l-1.8-0.5c-0.8-0.2-1.2-1-1-1.8l1.5-5.2c0.2-0.8,1-1.2,1.8-1l3.9,1.1c0.8,0.2,1.2,1,1,1.8
					l-1.5,5.2c0,0.1-0.1,0.3-0.2,0.4H412z M350.6,334.7l19.1-66.2c0.6-2.1,2.8-3.3,4.9-2.7l44.9,13c2.1,0.6,3.3,2.8,2.7,4.9
					l-19.1,66.2c-0.6,2.1-2.8,3.3-4.9,2.7l-44.9-13C351.2,339,349.9,336.8,350.6,334.7z M444.8,205.7l-19.1,66.2
					c-0.6,2.1-2.8,3.3-4.9,2.7l-44.9-13c-2.1-0.6-3.3-2.8-2.7-4.9l19.1-66.2c0.6-2.1,2.8-3.3,4.9-2.7l44.9,13
					C444.2,201.4,445.4,203.6,444.8,205.7z M443.3,196.6l-44.9-13c-2.1-0.6-3.3-2.8-2.7-4.9l19.1-66.2c0.6-2.1,2.8-3.3,4.9-2.7
					l44.9,13c2.1,0.6,3.3,2.8,2.7,4.9l-19.1,66.2C447.6,196,445.4,197.2,443.3,196.6z M337.2,352.2l3.9,1.1c0.8,0.2,1.2,1,1,1.8
					l-1.5,5.2c-0.2,0.8-1,1.2-1.8,1l-3.9-1.1c-0.8-0.2-1.2-1-1-1.8l1.5-5.2C335.6,352.5,336.4,352,337.2,352.2z M340.7,340l3.9,1.1
					c0.8,0.2,1.2,1,1,1.8l-1.5,5.2c-0.2,0.8-1,1.2-1.8,1l-3.9-1.1c-0.8-0.2-1.2-1-1-1.8l1.5-5.2C339.2,340.2,340,339.8,340.7,340z
					 M344.3,327.8l3.9,1.1c0.8,0.2,1.2,1,1,1.8l-1.5,5.2c-0.2,0.8-1,1.2-1.8,1l-3.9-1.1c-0.8-0.2-1.2-1-1-1.8l1.5-5.2
					C342.7,328,343.5,327.6,344.3,327.8z M347.8,315.6l3.9,1.1c0.8,0.2,1.2,1,1,1.8l-1.5,5.2c-0.2,0.8-1,1.2-1.8,1l-3.9-1.1
					c-0.8-0.2-1.2-1-1-1.8l1.5-5.2C346.2,315.8,347,315.4,347.8,315.6z M351.3,303.4l3.9,1.1c0.8,0.2,1.2,1,1,1.8l-1.5,5.2
					c-0.2,0.8-1,1.2-1.8,1l-3.9-1.1c-0.8-0.2-1.2-1-1-1.8l1.5-5.2C349.8,303.6,350.6,303.1,351.3,303.4z M354.9,291.1l3.9,1.1
					c0.8,0.2,1.2,1,1,1.8l-1.5,5.2c-0.2,0.8-1,1.2-1.8,1l-3.9-1.1c-0.8-0.2-1.2-1-1-1.8l1.5-5.2
					C353.3,291.3,354.1,290.9,354.9,291.1z M358.4,278.9l3.9,1.1c0.8,0.2,1.2,1,1,1.8l-1.5,5.2c-0.2,0.8-1,1.2-1.8,1l-3.9-1.1
					c-0.8-0.2-1.2-1-1-1.8l1.5-5.2C356.8,279.1,357.6,278.7,358.4,278.9z M361.9,266.7l3.9,1.1c0.8,0.2,1.2,1,1,1.8l-1.5,5.2
					c-0.2,0.8-1,1.2-1.8,1l-3.9-1.1c-0.8-0.2-1.2-1-1-1.8l1.5-5.2C360.4,266.9,361.2,266.5,361.9,266.7z M365.5,254.5l3.9,1.1
					c0.8,0.2,1.2,1,1,1.8l-1.5,5.2c-0.2,0.8-1,1.2-1.8,1l-3.9-1.1c-0.8-0.2-1.2-1-1-1.8l1.5-5.2
					C363.9,254.7,364.7,254.2,365.5,254.5z M369,242.2l3.9,1.1c0.8,0.2,1.2,1,1,1.8l-1.5,5.2c-0.2,0.8-1,1.2-1.8,1l-3.9-1.1
					c-0.8-0.2-1.2-1-1-1.8l1.5-5.2C367.4,242.4,368.2,242,369,242.2z M372.5,230l3.9,1.1c0.8,0.2,1.2,1,1,1.8l-1.5,5.2
					c-0.2,0.8-1,1.2-1.8,1l-3.9-1.1c-0.8-0.2-1.2-1-1-1.8l1.5-5.2C371,230.2,371.8,229.8,372.5,230z M376.1,217.8l3.9,1.1
					c0.8,0.2,1.2,1,1,1.8l-1.5,5.2c-0.2,0.8-1,1.2-1.8,1l-3.9-1.1c-0.8-0.2-1.2-1-1-1.8l1.5-5.2C374.5,218,375.3,217.6,376.1,217.8z
					 M379.6,205.6l3.9,1.1c0.8,0.2,1.2,1,1,1.8l-1.5,5.2c-0.2,0.8-1,1.2-1.8,1l-3.9-1.1c-0.8-0.2-1.2-1-1-1.8l1.5-5.2
					C378,205.8,378.8,205.3,379.6,205.6z M383.1,193.3l3.9,1.1c0.8,0.2,1.2,1,1,1.8l-1.5,5.2c-0.2,0.8-1,1.2-1.8,1l-3.9-1.1
					c-0.8-0.2-1.2-1-1-1.8l1.5-5.2C381.6,193.5,382.4,193.1,383.1,193.3z M386.7,181.1l3.9,1.1c0.8,0.2,1.2,1,1,1.8l-1.5,5.2
					c-0.2,0.8-1,1.2-1.8,1l-3.9-1.1c-0.8-0.2-1.2-1-1-1.8l1.5-5.2C385.1,181.3,385.9,180.9,386.7,181.1z M390.2,168.9l3.9,1.1
					c0.8,0.2,1.2,1,1,1.8l-1.5,5.2c-0.2,0.8-1,1.2-1.8,1l-3.9-1.1c-0.8-0.2-1.2-1-1-1.8l1.5-5.2
					C388.6,169.1,389.4,168.7,390.2,168.9z M393.7,156.7l3.9,1.1c0.8,0.2,1.2,1,1,1.8l-1.5,5.2c-0.2,0.8-1,1.2-1.8,1l-3.9-1.1
					c-0.8-0.2-1.2-1-1-1.8l1.5-5.2C392.2,156.9,393,156.4,393.7,156.7z M397.3,144.4l3.9,1.1c0.8,0.2,1.2,1,1,1.8l-1.5,5.2
					c-0.2,0.8-1,1.2-1.8,1l-3.9-1.1c-0.8-0.2-1.2-1-1-1.8l1.5-5.2C395.7,144.6,396.5,144.2,397.3,144.4z M400.8,132.2l3.9,1.1
					c0.8,0.2,1.2,1,1,1.8l-1.5,5.2c-0.2,0.8-1,1.2-1.8,1l-3.9-1.1c-0.8-0.2-1.2-1-1-1.8l1.5-5.2C399.3,132.4,400,132,400.8,132.2z
					 M404.3,120l3.9,1.1c0.8,0.2,1.2,1,1,1.8l-1.5,5.2c-0.2,0.8-1,1.2-1.8,1L402,128c-0.8-0.2-1.2-1-1-1.8l1.5-5.2
					C402.8,120.2,403.6,119.8,404.3,120z M407.9,107.8l3.9,1.1c0.8,0.2,1.2,1,1,1.8l-1.5,5.2c-0.2,0.8-1,1.2-1.8,1l-3.9-1.1
					c-0.8-0.2-1.2-1-1-1.8l1.5-5.2C406.3,108,407.1,107.5,407.9,107.8z M411.4,95.5l3.9,1.1c0.8,0.2,1.2,1,1,1.8l-1.5,5.2
					c-0.2,0.8-1,1.2-1.8,1l-3.9-1.1c-0.8-0.2-1.2-1-1-1.8l1.5-5.2C409.9,95.7,410.7,95.3,411.4,95.5z M414.9,83.3l3.9,1.1
					c0.8,0.2,1.2,1,1,1.8l-1.5,5.2c-0.2,0.8-1,1.2-1.8,1l-3.9-1.1c-0.8-0.2-1.2-1-1-1.8l1.5-5.2C413.4,83.5,414.2,83.1,414.9,83.3z
					 M418.5,71.1l3.9,1.1c0.8,0.2,1.2,1,1,1.8l-1.5,5.2c-0.2,0.8-1,1.2-1.8,1l-3.9-1.1c-0.8-0.2-1.2-1-1-1.8l1.5-5.2
					C416.9,71.3,417.7,70.9,418.5,71.1z M422,58.9l3.9,1.1c0.8,0.2,1.2,1,1,1.8l-1.5,5.2c-0.2,0.8-1,1.2-1.8,1l-3.9-1.1
					c-0.8-0.2-1.2-1-1-1.8l1.5-5.2C420.5,59.1,421.3,58.6,422,58.9z M425.5,46.6l3.9,1.1c0.8,0.2,1.2,1,1,1.8l-1.5,5.2
					c-0.2,0.8-1,1.2-1.8,1l-3.9-1.1c-0.8-0.2-1.2-1-1-1.8l1.5-5.2C424,46.8,424.8,46.4,425.5,46.6z M429.1,34.4l3.9,1.1
					c0.8,0.2,1.2,1,1,1.8l-1.5,5.2c-0.2,0.8-1,1.2-1.8,1l-3.9-1.1c-0.8-0.2-1.2-1-1-1.8l1.5-5.2C427.5,34.6,428.3,34.2,429.1,34.4z
					 M432.6,22.2l3.9,1.1c0.8,0.2,1.2,1,1,1.8l-1.5,5.2c-0.2,0.8-1,1.2-1.8,1l-3.9-1.1c-0.8-0.2-1.2-1-1-1.8l1.5-5.2
					C431.1,22.4,431.9,22,432.6,22.2z M448.3-17.6l-3.9-1.1c-0.8-0.2-1.2-1-1-1.8l1.5-5.2c0.2-0.8,1-1.2,1.8-1l3.9,1.1
					c0.8,0.2,1.2,1,1,1.8l-1.5,5.2C449.9-17.8,449.1-17.4,448.3-17.6z M444.8-5.4l-3.9-1.1c-0.8-0.2-1.2-1-1-1.8l1.5-5.2
					c0.2-0.8,1-1.2,1.8-1l3.9,1.1c0.8,0.2,1.2,1,1,1.8l-1.5,5.2C446.3-5.6,445.5-5.1,444.8-5.4z M441.2,6.9l-3.9-1.1
					c-0.8-0.2-1.2-1-1-1.8l1.5-5.2c0.2-0.8,1-1.2,1.8-1l3.9,1.1c0.8,0.2,1.2,1,1,1.8L443,5.9C442.8,6.6,442,7.1,441.2,6.9z
					 M439.5,18.1c-0.2,0.8-1,1.2-1.8,1l-3.9-1.1c-0.8-0.2-1.2-1-1-1.8l1.5-5.2c0.2-0.8,1-1.2,1.8-1l3.9,1.1c0.8,0.2,1.2,1,1,1.8
					L439.5,18.1z M489.8,49.7l-19.1,66.2c-0.6,2.1-2.8,3.3-4.9,2.7l-44.9-13c-2.1-0.6-3.3-2.8-2.7-4.9l19.1-66.2
					c0.6-2.1,2.8-3.3,4.9-2.7l44.9,13C489.2,45.4,490.5,47.6,489.8,49.7z M520-23.4l-3.9-1.1c-0.8-0.2-1.2-1-1-1.8l1.5-5.2
					c0.2-0.8,1-1.2,1.8-1l3.9,1.1c0.8,0.2,1.2,1,1,1.8l-1.5,5.2C521.5-23.6,520.7-23.1,520-23.4z M516.4-11.1l-3.9-1.1
					c-0.8-0.2-1.2-1-1-1.8l1.5-5.2c0.2-0.8,1-1.2,1.8-1l3.9,1.1c0.8,0.2,1.2,1,1,1.8l-1.5,5.2C518-11.4,517.2-10.9,516.4-11.1z
					 M512.9,1.1L509,0c-0.8-0.2-1.2-1-1-1.8l1.5-5.2c0.2-0.8,1-1.2,1.8-1l3.9,1.1c0.8,0.2,1.2,1,1,1.8l-1.5,5.2
					C514.4,0.9,513.7,1.3,512.9,1.1z M509.4,13.3l-3.9-1.1c-0.8-0.2-1.2-1-1-1.8l1.5-5.2c0.2-0.8,1-1.2,1.8-1l3.9,1.1
					c0.8,0.2,1.2,1,1,1.8l-1.5,5.2C510.9,13.1,510.1,13.5,509.4,13.3z M505.8,25.5l-3.9-1.1c-0.8-0.2-1.2-1-1-1.8l1.5-5.2
					c0.2-0.8,1-1.2,1.8-1l3.9,1.1c0.8,0.2,1.2,1,1,1.8l-1.5,5.2C507.4,25.3,506.6,25.7,505.8,25.5z M502.3,37.8l-3.9-1.1
					c-0.8-0.2-1.2-1-1-1.8l1.5-5.2c0.2-0.8,1-1.2,1.8-1l3.9,1.1c0.8,0.2,1.2,1,1,1.8l-1.5,5.2C503.8,37.5,503,38,502.3,37.8z
					 M498.8,50l-3.9-1.1c-0.8-0.2-1.2-1-1-1.8l1.5-5.2c0.2-0.8,1-1.2,1.8-1l3.9,1.1c0.8,0.2,1.2,1,1,1.8l-1.5,5.2
					C500.3,49.8,499.5,50.2,498.8,50z M495.2,62.2l-3.9-1.1c-0.8-0.2-1.2-1-1-1.8l1.5-5.2c0.2-0.8,1-1.2,1.8-1l3.9,1.1
					c0.8,0.2,1.2,1,1,1.8l-1.5,5.2C496.8,62,496,62.4,495.2,62.2z M491.7,74.4l-3.9-1.1c-0.8-0.2-1.2-1-1-1.8l1.5-5.2
					c0.2-0.8,1-1.2,1.8-1l3.9,1.1c0.8,0.2,1.2,1,1,1.8l-1.5,5.2C493.2,74.2,492.4,74.6,491.7,74.4z M488.2,86.7l-3.9-1.1
					c-0.8-0.2-1.2-1-1-1.8l1.5-5.2c0.2-0.8,1-1.2,1.8-1l3.9,1.1c0.8,0.2,1.2,1,1,1.8l-1.5,5.2C489.7,86.4,488.9,86.9,488.2,86.7z
					 M484.6,98.9l-3.9-1.1c-0.8-0.2-1.2-1-1-1.8l1.5-5.2c0.2-0.8,1-1.2,1.8-1l3.9,1.1c0.8,0.2,1.2,1,1,1.8l-1.5,5.2
					C486.2,98.7,485.4,99.1,484.6,98.9z M481.1,111.1l-3.9-1.1c-0.8-0.2-1.2-1-1-1.8l1.5-5.2c0.2-0.8,1-1.2,1.8-1l3.9,1.1
					c0.8,0.2,1.2,1,1,1.8l-1.5,5.2C482.6,110.9,481.8,111.3,481.1,111.1z M477.6,123.3l-3.9-1.1c-0.8-0.2-1.2-1-1-1.8l1.5-5.2
					c0.2-0.8,1-1.2,1.8-1l3.9,1.1c0.8,0.2,1.2,1,1,1.8l-1.5,5.2C479.1,123.1,478.3,123.5,477.6,123.3z M474,135.6l-3.9-1.1
					c-0.8-0.2-1.2-1-1-1.8l1.5-5.2c0.2-0.8,1-1.2,1.8-1l3.9,1.1c0.8,0.2,1.2,1,1,1.8l-1.5,5.2C475.6,135.3,474.8,135.8,474,135.6z
					 M470.5,147.8l-3.9-1.1c-0.8-0.2-1.2-1-1-1.8l1.5-5.2c0.2-0.8,1-1.2,1.8-1l3.9,1.1c0.8,0.2,1.2,1,1,1.8l-1.5,5.2
					C472,147.6,471.2,148,470.5,147.8z M467,160l-3.9-1.1c-0.8-0.2-1.2-1-1-1.8l1.5-5.2c0.2-0.8,1-1.2,1.8-1l3.9,1.1
					c0.8,0.2,1.2,1,1,1.8l-1.5,5.2C468.5,159.8,467.7,160.2,467,160z M463.4,172.2l-3.9-1.1c-0.8-0.2-1.2-1-1-1.8l1.5-5.2
					c0.2-0.8,1-1.2,1.8-1l3.9,1.1c0.8,0.2,1.2,1,1,1.8l-1.5,5.2C465,172,464.2,172.4,463.4,172.2z M459.9,184.4l-3.9-1.1
					c-0.8-0.2-1.2-1-1-1.8l1.5-5.2c0.2-0.8,1-1.2,1.8-1l3.9,1.1c0.8,0.2,1.2,1,1,1.8l-1.5,5.2C461.4,184.2,460.6,184.7,459.9,184.4z
					 M456.3,196.7l-3.9-1.1c-0.8-0.2-1.2-1-1-1.8l1.5-5.2c0.2-0.8,1-1.2,1.8-1l3.9,1.1c0.8,0.2,1.2,1,1,1.8l-1.5,5.2
					C457.9,196.5,457.1,196.9,456.3,196.7z M452.8,208.9l-3.9-1.1c-0.8-0.2-1.2-1-1-1.8l1.5-5.2c0.2-0.8,1-1.2,1.8-1l3.9,1.1
					c0.8,0.2,1.2,1,1,1.8l-1.5,5.2C454.4,208.7,453.6,209.1,452.8,208.9z M449.3,221.1l-3.9-1.1c-0.8-0.2-1.2-1-1-1.8l1.5-5.2
					c0.2-0.8,1-1.2,1.8-1l3.9,1.1c0.8,0.2,1.2,1,1,1.8l-1.5,5.2C450.8,220.9,450,221.3,449.3,221.1z M445.7,233.3l-3.9-1.1
					c-0.8-0.2-1.2-1-1-1.8l1.5-5.2c0.2-0.8,1-1.2,1.8-1l3.9,1.1c0.8,0.2,1.2,1,1,1.8l-1.5,5.2C447.3,233.1,446.5,233.6,445.7,233.3z
					 M442.2,245.6l-3.9-1.1c-0.8-0.2-1.2-1-1-1.8l1.5-5.2c0.2-0.8,1-1.2,1.8-1l3.9,1.1c0.8,0.2,1.2,1,1,1.8l-1.5,5.2
					C443.8,245.4,443,245.8,442.2,245.6z M438.7,257.8l-3.9-1.1c-0.8-0.2-1.2-1-1-1.8l1.5-5.2c0.2-0.8,1-1.2,1.8-1l3.9,1.1
					c0.8,0.2,1.2,1,1,1.8l-1.5,5.2C440.2,257.6,439.4,258,438.7,257.8z M435.1,270l-3.9-1.1c-0.8-0.2-1.2-1-1-1.8l1.5-5.2
					c0.2-0.8,1-1.2,1.8-1l3.9,1.1c0.8,0.2,1.2,1,1,1.8l-1.5,5.2C436.7,269.8,435.9,270.2,435.1,270z M431.6,282.2l-3.9-1.1
					c-0.8-0.2-1.2-1-1-1.8l1.5-5.2c0.2-0.8,1-1.2,1.8-1l3.9,1.1c0.8,0.2,1.2,1,1,1.8l-1.5,5.2C433.2,282,432.4,282.5,431.6,282.2z
					 M428.1,294.5l-3.9-1.1c-0.8-0.2-1.2-1-1-1.8l1.5-5.2c0.2-0.8,1-1.2,1.8-1l3.9,1.1c0.8,0.2,1.2,1,1,1.8l-1.5,5.2
					C429.6,294.3,428.8,294.7,428.1,294.5z M424.5,306.7l-3.9-1.1c-0.8-0.2-1.2-1-1-1.8l1.5-5.2c0.2-0.8,1-1.2,1.8-1l3.9,1.1
					c0.8,0.2,1.2,1,1,1.8l-1.5,5.2C426.1,306.5,425.3,306.9,424.5,306.7z M421,318.9l-3.9-1.1c-0.8-0.2-1.2-1-1-1.8l1.5-5.2
					c0.2-0.8,1-1.2,1.8-1l3.9,1.1c0.8,0.2,1.2,1,1,1.8l-1.5,5.2C422.6,318.7,421.8,319.1,421,318.9z M417.5,331.1l-3.9-1.1
					c-0.8-0.2-1.2-1-1-1.8l1.5-5.2c0.2-0.8,1-1.2,1.8-1l3.9,1.1c0.8,0.2,1.2,1,1,1.8l-1.5,5.2C419,330.9,418.2,331.4,417.5,331.1z
					 M413.9,343.4l-3.9-1.1c-0.8-0.2-1.2-1-1-1.8l1.5-5.2c0.2-0.8,1-1.2,1.8-1l3.9,1.1c0.8,0.2,1.2,1,1,1.8l-1.5,5.2
					C415.5,343.2,414.7,343.6,413.9,343.4z M413.7,349.4l-1.5,5.2c-0.2,0.8-1,1.2-1.8,1l-3.9-1.1c-0.8-0.2-1.2-1-1-1.8l1.5-5.2
					c0.2-0.8,1-1.2,1.8-1l3.9,1.1C413.5,347.8,413.9,348.6,413.7,349.4z"/>
			</g>
			<g class="st5">
				<path class="st7" d="M398.1,367.2h-56.9l6-20.8c0.6-2.1,2.8-3.3,4.9-2.7l44.9,13c2.1,0.6,3.3,2.8,2.7,4.9L398.1,367.2z"/>
				<path class="st7" d="M374.6,265.7c-2.1-0.6-4.3,0.6-4.9,2.7l-19.1,66.2c-0.6,2.1,0.6,4.3,2.7,4.9l44.9,13
					c2.1,0.6,4.3-0.6,4.9-2.7l19.1-66.2c0.6-2.1-0.6-4.3-2.7-4.9L374.6,265.7z"/>
				<path class="st7" d="M397.1,187.8c-2.1-0.6-4.3,0.6-4.9,2.7l-19.1,66.2c-0.6,2.1,0.6,4.3,2.7,4.9l44.9,13
					c2.1,0.6,4.3-0.6,4.9-2.7l19.1-66.2c0.6-2.1-0.6-4.3-2.7-4.9L397.1,187.8z"/>
				<path class="st7" d="M419.7,109.8c-2.1-0.6-4.3,0.6-4.9,2.7l-19.1,66.2c-0.6,2.1,0.6,4.3,2.7,4.9l44.9,13
					c2.1,0.6,4.3-0.6,4.9-2.7l19.1-66.2c0.6-2.1-0.6-4.3-2.7-4.9L419.7,109.8z"/>
				<path class="st7" d="M442.2,31.8c-2.1-0.6-4.3,0.6-4.9,2.7l-19.1,66.2c-0.6,2.1,0.6,4.3,2.7,4.9l44.9,13
					c2.1,0.6,4.3-0.6,4.9-2.7l19.1-66.2c0.6-2.1-0.6-4.3-2.7-4.9L442.2,31.8z"/>
				<path class="st7" d="M457.2-34.2h49.1l3.4,1c2.1,0.6,3.3,2.8,2.7,4.9l-19.1,66.2c-0.6,2.1-2.8,3.3-4.9,2.7l-44.9-13
					c-2.1-0.6-3.3-2.8-2.7-4.9L457.2-34.2z"/>
			</g>
		</g>
		<g class="st6">
			<rect x="38" y="81" transform="matrix(0.4773 -0.8787 0.8787 0.4773 -60.981 82.8915)" class="st7" width="2.3" height="23.4"/>
			<path class="st7" d="M33,92l-6.9-3.7c-0.4-0.2-0.5-0.7-0.3-1.1l1.4-2.5c0.2-0.4,0.7-0.5,1.1-0.3l6.9,3.7c0.4,0.2,0.5,0.7,0.3,1.1
				l-1.4,2.5C33.9,92,33.4,92.2,33,92z"/>
			
				<rect x="56" y="137.9" transform="matrix(0.3793 -0.9253 0.9253 0.3793 -95.8922 149.5911)" class="st7" width="15" height="16.8"/>
			<path class="st7" d="M65.8,164.5l-16.6-6.8c-1.5-0.6-2.2-2.3-1.6-3.7l2.5-6.2c0.6-1.5,2.3-2.2,3.7-1.6l16.6,6.8
				c1.5,0.6,2.2,2.3,1.6,3.7l-2.5,6.2C68.9,164.4,67.2,165.1,65.8,164.5z"/>
			
				<rect x="-38.6" y="220.9" transform="matrix(0.3793 -0.9253 0.9253 0.3793 -186.4887 168.133)" class="st7" width="141.4" height="4.3"/>
			<polygon class="st7" points="-37.9,252.6 57.8,152 54.7,149.1 -42.1,250.9 			"/>
			<polygon class="st7" points="65.7,295.1 68.2,154.6 63.9,154.5 61.5,293.3 			"/>
			
				<rect x="36.7" y="131.5" transform="matrix(0.1541 -0.988 0.988 0.1541 -113.8175 163.053)" class="st7" width="3.2" height="32.9"/>
			<path class="st7" d="M23.1,112.7l15.1,6.2c1,0.4,2.1-0.1,2.5-1l2.6-6.5c0.4-1-0.1-2.1-1-2.5l-15.1-6.2c-1-0.4-2.1,0.1-2.5,1
				l-2.6,6.5C21.7,111.2,22.2,112.3,23.1,112.7z"/>
			<path class="st7" d="M27.9,120.2l15.8,6.5c1.3,0.5,2.8-0.1,3.4-1.4l6-14.6c0.5-1.3-0.1-2.8-1.4-3.4l-15.8-6.5
				c-1.3-0.5-2.8,0.1-3.4,1.4l-6,14.6C26,118.1,26.6,119.6,27.9,120.2z"/>
			
				<rect x="103.6" y="125.7" transform="matrix(0.3793 -0.9253 0.9253 0.3793 -56.8227 186.6533)" class="st7" width="14.3" height="20"/>
			<polygon class="st7" points="109.1,135 129.9,169.2 147.9,125.3 			"/>
			<path class="st7" d="M96,160.2l-65.4-26.8c-2.9-1.2-4.3-4.5-3.1-7.5l15.6-38c1.2-2.9,4.5-4.3,7.5-3.1l65.4,26.8
				c2.9,1.2,4.3,4.5,3.1,7.5l-15.6,38C102.3,160,98.9,161.4,96,160.2z"/>
			<path class="st7" d="M29.8,149.9l-10.9-1.7c-0.6-0.1-1.1-0.7-1-1.3l0.6-4c0.1-0.6,0.7-1.1,1.3-1l10.9,1.7c0.6,0.1,1.1,0.7,1,1.3
				l-0.6,4C31,149.6,30.4,150,29.8,149.9z"/>
			<g>
				
					<ellipse transform="matrix(0.9572 -0.2895 0.2895 0.9572 -22.5871 35.5971)" class="st7" cx="109" cy="94.2" rx="17.7" ry="17.7"/>
				<path class="st7" d="M128.4,77.5c-9.2-10.7-25.4-11.9-36.1-2.7c-10.7,9.2-11.9,25.4-2.7,36.1c9.2,10.7,25.4,11.9,36.1,2.7
					C136.4,104.3,137.6,88.2,128.4,77.5z M125.3,83.6c1-0.9,2.6-0.6,3.2,0.6c1.9,3.7,2.7,7.9,2.3,12c-0.1,1.3-1.5,2.2-2.7,1.8
					l-10.5-3.7c-1.5-0.5-1.9-2.5-0.7-3.5L125.3,83.6z M110.2,72.4c4.2,0.2,8.2,1.6,11.6,4c1.1,0.8,1.2,2.4,0.2,3.3l-8.5,7.3
					c-1.2,1-3.1,0.4-3.4-1.2l-2.1-11C107.7,73.5,108.8,72.3,110.2,72.4z M90.7,82.3c1.1-1.7,2.5-3.3,4.1-4.7
					c1.6-1.4,3.3-2.5,5.2-3.3c1.2-0.6,2.6,0.2,2.9,1.5l2.1,11c0.3,1.6-1.2,2.9-2.7,2.3l-10.5-3.7C90.5,84.9,90,83.4,90.7,82.3z
					 M92.8,104.7c-1,0.9-2.6,0.6-3.2-0.6c-1.9-3.7-2.7-7.9-2.3-12c0.1-1.3,1.5-2.2,2.7-1.8l10.5,3.7c1.5,0.5,1.9,2.5,0.7,3.5
					L92.8,104.7z M106.3,90.9c1.8-1.5,4.4-1.3,6,0.4c1.5,1.8,1.3,4.4-0.4,6c-1.8,1.5-4.4,1.3-6-0.4
					C104.3,95.1,104.5,92.5,106.3,90.9z M107.9,115.9c-4.2-0.2-8.2-1.6-11.6-4c-1.1-0.8-1.2-2.4-0.2-3.3l8.5-7.3
					c1.2-1,3.1-0.4,3.4,1.2l2.1,11C110.3,114.8,109.3,116,107.9,115.9z M115.2,112.5l-2.1-11c-0.3-1.6,1.2-2.9,2.7-2.3l10.5,3.7
					c1.3,0.4,1.8,2,1,3.1c-1.1,1.7-2.5,3.3-4.1,4.7c-1.6,1.4-3.3,2.5-5.2,3.3C116.8,114.6,115.4,113.9,115.2,112.5z"/>
				<path class="st7" d="M110.4,95.7c-0.9,0.7-2.2,0.7-2.9-0.2c-0.7-0.9-0.7-2.2,0.2-2.9c0.9-0.7,2.2-0.7,2.9,0.2
					C111.4,93.7,111.3,95,110.4,95.7z"/>
			</g>
			<g>
				
					<ellipse transform="matrix(0.1501 -0.9887 0.9887 0.1501 -22.1498 126.7123)" class="st7" cx="62.6" cy="76.2" rx="16" ry="16"/>
				<path class="st7" d="M71.4,54.9C59.6,50,46.1,55.7,41.2,67.5C36.4,79.3,42,92.8,53.9,97.6S79.2,96.8,84,85
					C88.8,73.2,83.2,59.7,71.4,54.9z M71.4,61.1c0.5-1.1,1.9-1.5,2.8-0.8c3,2.2,5.4,5.3,6.8,8.8c0.4,1.1-0.3,2.4-1.5,2.5l-10,1.4
					c-1.4,0.2-2.5-1.2-2-2.6L71.4,61.1z M54.6,58.2c3.4-1.5,7.3-2,11-1.5c1.2,0.2,1.9,1.4,1.5,2.6l-3.8,9.3
					c-0.5,1.3-2.3,1.6-3.2,0.4l-6.2-8C53.1,60.1,53.5,58.7,54.6,58.2z M43,74.2c0.2-1.9,0.7-3.7,1.4-5.4c0.7-1.7,1.7-3.4,2.8-4.8
					c0.8-0.9,2.2-1,2.9,0l6.2,8c0.9,1.1,0.2,2.8-1.2,3l-10,1.4C43.9,76.4,42.9,75.4,43,74.2z M53.9,91.4c-0.5,1.1-1.9,1.5-2.8,0.8
					c-3-2.2-5.4-5.3-6.8-8.8c-0.4-1.1,0.3-2.4,1.5-2.5l10-1.4c1.4-0.2,2.5,1.2,2,2.6L53.9,91.4z M59.1,74.8c0.8-2,3-2.9,5-2.1
					c2,0.8,2.9,3,2.1,5c-0.8,2-3,2.9-5,2.1C59.2,79,58.3,76.7,59.1,74.8z M70.7,94.2c-3.4,1.5-7.3,2-11,1.5
					c-1.2-0.2-1.9-1.4-1.5-2.6l3.8-9.3c0.5-1.3,2.3-1.6,3.2-0.4l6.2,8C72.1,92.4,71.8,93.7,70.7,94.2z M75.1,88.5l-6.2-8
					c-0.9-1.1-0.2-2.8,1.2-3l10-1.4c1.2-0.2,2.2,0.9,2.1,2.1c-0.2,1.9-0.7,3.7-1.4,5.4c-0.7,1.7-1.7,3.4-2.8,4.8
					C77.3,89.5,75.8,89.5,75.1,88.5z"/>
				<path class="st7" d="M64.4,77c-0.4,1-1.5,1.4-2.4,1c-1-0.4-1.4-1.5-1-2.4c0.4-1,1.5-1.4,2.4-1C64.3,74.9,64.8,76,64.4,77z"/>
			</g>
		</g>
	</g>
</g>
</svg>
